# xmcd
#
# Track frame offsets:
#	187
#	17840
#	37097
#	53755
#	74402
#	90862
#	112505
#	133485
#	148545
#	166532
#
# Disc length: 2417 seconds
#
# Revision: 2
# Processed by: cddbd v1.5.1PL0 Copyright (c) Steve Scherf et al.
# Submitted via: audiograbber 1.83.01
#
DISCID=7c096f0a
DTITLE=Various Artist - Chicago Blues Bash
DYEAR=1992
DGENRE=Blues
TTITLE0=Junior Wells - Good Morning, Schoolgirl
TTITLE1=Big Joe Williams - I Done Stopped Hollering
TTITLE2=J.B. Hutto - Blues do Me a Favor
TTITLE3=Jimmy Johnson - Poor Boy's Dream
TTITLE4=Big Joe Williams - Jumpin' in the Moonlight
TTITLE5=Junior Wells - Early in the Morning
TTITLE6=Big Joe Williams - Indiana Woman Blues
TTITLE7=J.B. Hutto - Young Hawks' Crawl
TTITLE8=Jimmy Johnson - Take Five
TTITLE9=Big Joe Williams - You're Gonna Need Big King Jesus
EXTD=YEAR: 1992
EXTT0=
EXTT1=
EXTT2=
EXTT3=
EXTT4=
EXTT5=
EXTT6=
EXTT7=
EXTT8=
EXTT9=
PLAYORDER=
